{
	"patcher" : 	{
		"fileversion" : 1,
		"appversion" : 		{
			"major" : 7,
			"minor" : 3,
			"revision" : 4,
			"architecture" : "x86",
			"modernui" : 1
		}
,
		"rect" : [ 34.0, 79.0, 1372.0, 717.0 ],
		"bglocked" : 0,
		"openinpresentation" : 0,
		"default_fontsize" : 12.0,
		"default_fontface" : 0,
		"default_fontname" : "Arial",
		"gridonopen" : 1,
		"gridsize" : [ 15.0, 15.0 ],
		"gridsnaponopen" : 1,
		"objectsnaponopen" : 1,
		"statusbarvisible" : 2,
		"toolbarvisible" : 1,
		"lefttoolbarpinned" : 0,
		"toptoolbarpinned" : 0,
		"righttoolbarpinned" : 0,
		"bottomtoolbarpinned" : 0,
		"toolbars_unpinned_last_save" : 0,
		"tallnewobj" : 0,
		"boxanimatetime" : 200,
		"enablehscroll" : 1,
		"enablevscroll" : 1,
		"devicewidth" : 0.0,
		"description" : "",
		"digest" : "",
		"tags" : "",
		"style" : "",
		"subpatcher_template" : "",
		"boxes" : [ 			{
				"box" : 				{
					"fontname" : "Arial",
					"fontsize" : 13.0,
					"hidden" : 1,
					"id" : "obj-107",
					"maxclass" : "newobj",
					"numinlets" : 6,
					"numoutlets" : 6,
					"outlettype" : [ "", "", "", "", "", "" ],
					"patching_rect" : [ 335.0, 801.597595, 326.0, 23.0 ],
					"style" : "",
					"text" : "route rotationrate rawaccel compass orientation gravity"
				}

			}
, 			{
				"box" : 				{
					"id" : "obj-105",
					"maxclass" : "comment",
					"numinlets" : 1,
					"numoutlets" : 0,
					"patching_rect" : [ 489.5, 767.097595, 165.0, 20.0 ],
					"style" : "",
					"text" : "Phone Accelerometer data"
				}

			}
, 			{
				"box" : 				{
					"id" : "obj-103",
					"linecount" : 2,
					"maxclass" : "comment",
					"numinlets" : 1,
					"numoutlets" : 0,
					"patching_rect" : [ 1224.0, 754.5, 150.0, 33.0 ],
					"style" : "",
					"text" : "Appropriate Scaling for Filter Values"
				}

			}
, 			{
				"box" : 				{
					"id" : "obj-101",
					"maxclass" : "comment",
					"numinlets" : 1,
					"numoutlets" : 0,
					"patching_rect" : [ 536.503357, 1301.597656, 150.0, 20.0 ],
					"style" : "",
					"text" : "Amount of Time Stretching"
				}

			}
, 			{
				"box" : 				{
					"id" : "obj-99",
					"linecount" : 3,
					"maxclass" : "comment",
					"numinlets" : 1,
					"numoutlets" : 0,
					"patching_rect" : [ 787.0, 1200.597656, 150.0, 47.0 ],
					"style" : "",
					"text" : "Time Stretch (Playback rate modification) message"
				}

			}
, 			{
				"box" : 				{
					"id" : "obj-97",
					"maxclass" : "comment",
					"numinlets" : 1,
					"numoutlets" : 0,
					"patching_rect" : [ 918.0, 1315.597656, 67.0, 20.0 ],
					"style" : "",
					"text" : "Pitch Shift"
				}

			}
, 			{
				"box" : 				{
					"id" : "obj-95",
					"maxclass" : "comment",
					"numinlets" : 1,
					"numoutlets" : 0,
					"patching_rect" : [ 644.253357, 1600.5, 150.0, 20.0 ],
					"presentation" : 1,
					"presentation_rect" : [ 1064.503418, 460.0, 108.0, 20.0 ],
					"style" : "",
					"text" : "Click to start Audio"
				}

			}
, 			{
				"box" : 				{
					"id" : "obj-94",
					"linecount" : 2,
					"maxclass" : "comment",
					"numinlets" : 1,
					"numoutlets" : 0,
					"patching_rect" : [ 1152.0, 458.0, 156.0, 33.0 ],
					"presentation" : 1,
					"presentation_linecount" : 2,
					"presentation_rect" : [ 302.0, 608.0, 150.0, 33.0 ],
					"style" : "",
					"text" : "COLOR AREA mapped to FILTER GAIN "
				}

			}
, 			{
				"box" : 				{
					"id" : "obj-93",
					"linecount" : 3,
					"maxclass" : "comment",
					"numinlets" : 1,
					"numoutlets" : 0,
					"patching_rect" : [ 1152.0, 400.0, 158.0, 47.0 ],
					"presentation" : 1,
					"presentation_linecount" : 3,
					"presentation_rect" : [ 163.0, 608.0, 128.0, 47.0 ],
					"style" : "",
					"text" : "COLOR Y POSITION mapped to FILTER Q VALUE"
				}

			}
, 			{
				"box" : 				{
					"id" : "obj-92",
					"linecount" : 3,
					"maxclass" : "comment",
					"numinlets" : 1,
					"numoutlets" : 0,
					"patching_rect" : [ 1152.0, 344.0, 155.0, 47.0 ],
					"presentation" : 1,
					"presentation_linecount" : 4,
					"presentation_rect" : [ 32.0, 608.0, 123.0, 60.0 ],
					"style" : "",
					"text" : "COLOR X POSITION mapped to FILTER CENTER FREQUENCY"
				}

			}
, 			{
				"box" : 				{
					"id" : "obj-91",
					"linecount" : 2,
					"maxclass" : "comment",
					"numinlets" : 1,
					"numoutlets" : 0,
					"patching_rect" : [ 1152.0, 302.0, 150.0, 33.0 ],
					"presentation" : 1,
					"presentation_linecount" : 2,
					"presentation_rect" : [ 523.913696, 608.0, 150.0, 33.0 ],
					"style" : "",
					"text" : "SLIDER LEVEL mapped to PLAYBACK SPEED"
				}

			}
, 			{
				"box" : 				{
					"id" : "obj-90",
					"linecount" : 2,
					"maxclass" : "comment",
					"numinlets" : 1,
					"numoutlets" : 0,
					"patching_rect" : [ 1152.0, 260.0, 150.0, 33.0 ],
					"presentation" : 1,
					"presentation_linecount" : 2,
					"presentation_rect" : [ 680.474976, 608.0, 142.0, 33.0 ],
					"style" : "",
					"text" : "PHONE TILT mapped to PITCH"
				}

			}
, 			{
				"box" : 				{
					"fontface" : 1,
					"id" : "obj-88",
					"maxclass" : "comment",
					"numinlets" : 1,
					"numoutlets" : 0,
					"patching_rect" : [ 523.0, 1056.0, 98.0, 20.0 ],
					"presentation" : 1,
					"presentation_rect" : [ 702.474976, 513.699219, 98.0, 20.0 ],
					"style" : "",
					"text" : "PHONE TILT",
					"textcolor" : [ 1.0, 1.0, 1.0, 1.0 ]
				}

			}
, 			{
				"box" : 				{
					"fontface" : 1,
					"id" : "obj-87",
					"maxclass" : "comment",
					"numinlets" : 1,
					"numoutlets" : 0,
					"patching_rect" : [ 275.503357, 1056.0, 98.0, 20.0 ],
					"presentation" : 1,
					"presentation_rect" : [ 549.913696, 513.699219, 98.0, 20.0 ],
					"style" : "",
					"text" : "SLIDER LEVEL",
					"textcolor" : [ 1.0, 1.0, 1.0, 1.0 ]
				}

			}
, 			{
				"box" : 				{
					"id" : "obj-85",
					"maxclass" : "newobj",
					"numinlets" : 2,
					"numoutlets" : 1,
					"outlettype" : [ "int" ],
					"patching_rect" : [ 420.752075, 1249.097656, 29.5, 22.0 ],
					"style" : "",
					"text" : "- 5"
				}

			}
, 			{
				"box" : 				{
					"id" : "obj-84",
					"maxclass" : "number",
					"numinlets" : 1,
					"numoutlets" : 2,
					"outlettype" : [ "", "bang" ],
					"parameter_enable" : 1,
					"patching_rect" : [ 420.752075, 1212.597656, 50.0, 22.0 ],
					"saved_attribute_attributes" : 					{
						"valueof" : 						{
							"parameter_longname" : "number[11]",
							"parameter_shortname" : "number[11]",
							"parameter_type" : 3,
							"parameter_invisible" : 1
						}

					}
,
					"style" : "",
					"varname" : "number[11]"
				}

			}
, 			{
				"box" : 				{
					"id" : "obj-83",
					"maxclass" : "number",
					"numinlets" : 1,
					"numoutlets" : 2,
					"outlettype" : [ "", "bang" ],
					"parameter_enable" : 1,
					"patching_rect" : [ 420.752075, 1286.097656, 50.0, 22.0 ],
					"saved_attribute_attributes" : 					{
						"valueof" : 						{
							"parameter_longname" : "number[10]",
							"parameter_shortname" : "number[10]",
							"parameter_type" : 3,
							"parameter_invisible" : 1
						}

					}
,
					"style" : "",
					"varname" : "number[10]"
				}

			}
, 			{
				"box" : 				{
					"id" : "obj-78",
					"maxclass" : "newobj",
					"numinlets" : 6,
					"numoutlets" : 1,
					"outlettype" : [ "" ],
					"patching_rect" : [ 420.752075, 1142.597656, 120.0, 22.0 ],
					"style" : "",
					"text" : "scale -1.2 1.2 -2. 12."
				}

			}
, 			{
				"box" : 				{
					"format" : 6,
					"id" : "obj-68",
					"maxclass" : "flonum",
					"numinlets" : 1,
					"numoutlets" : 2,
					"outlettype" : [ "", "bang" ],
					"parameter_enable" : 1,
					"patching_rect" : [ 466.752075, 1056.0, 50.0, 22.0 ],
					"saved_attribute_attributes" : 					{
						"valueof" : 						{
							"parameter_longname" : "number[4]",
							"parameter_shortname" : "number[4]",
							"parameter_type" : 3,
							"parameter_invisible" : 1
						}

					}
,
					"style" : "",
					"varname" : "number[9]"
				}

			}
, 			{
				"box" : 				{
					"id" : "obj-70",
					"maxclass" : "newobj",
					"numinlets" : 1,
					"numoutlets" : 3,
					"outlettype" : [ "float", "float", "float" ],
					"patching_rect" : [ 420.752075, 1017.097656, 96.0, 22.0 ],
					"style" : "",
					"text" : "unpack 0. 0. 0."
				}

			}
, 			{
				"box" : 				{
					"bgcolor" : [ 1.0, 1.0, 1.0, 1.0 ],
					"candicane2" : [ 0.282353, 0.560784, 0.886275, 1.0 ],
					"candicane3" : [ 0.0, 0.387318, 0.844577, 1.0 ],
					"candycane" : 3,
					"id" : "obj-366",
					"ignoreclick" : 1,
					"maxclass" : "multislider",
					"numinlets" : 1,
					"numoutlets" : 2,
					"outlettype" : [ "", "" ],
					"parameter_enable" : 1,
					"patching_rect" : [ 420.752075, 876.898926, 173.495865, 122.0 ],
					"presentation" : 1,
					"presentation_rect" : [ 664.727051, 332.398926, 173.495865, 122.0 ],
					"saved_attribute_attributes" : 					{
						"valueof" : 						{
							"parameter_longname" : "multislider[2]",
							"parameter_shortname" : "multislider[1]",
							"parameter_type" : 3,
							"parameter_invisible" : 1
						}

					}
,
					"setminmax" : [ -1.2, 1.2 ],
					"setstyle" : 3,
					"size" : 3,
					"slidercolor" : [ 0.431373, 0.752941, 0.890196, 1.0 ],
					"style" : "",
					"varname" : "multislider[3]"
				}

			}
, 			{
				"box" : 				{
					"fontname" : "Arial",
					"fontsize" : 13.0,
					"hidden" : 1,
					"id" : "obj-71",
					"maxclass" : "newobj",
					"numinlets" : 2,
					"numoutlets" : 2,
					"outlettype" : [ "", "" ],
					"patching_rect" : [ 335.0, 765.597595, 85.0, 23.0 ],
					"style" : "",
					"text" : "zl.slice 4"
				}

			}
, 			{
				"box" : 				{
					"fontname" : "Arial",
					"fontsize" : 13.0,
					"hidden" : 1,
					"id" : "obj-77",
					"maxclass" : "newobj",
					"numinlets" : 1,
					"numoutlets" : 1,
					"outlettype" : [ "" ],
					"patching_rect" : [ 335.0, 729.203003, 101.0, 23.0 ],
					"style" : "",
					"text" : "mira.motion"
				}

			}
, 			{
				"box" : 				{
					"id" : "obj-59",
					"maxclass" : "message",
					"numinlets" : 2,
					"numoutlets" : 1,
					"outlettype" : [ "" ],
					"patching_rect" : [ 279.5, 926.898926, 29.5, 22.0 ],
					"presentation" : 1,
					"presentation_rect" : [ 501.5, 382.398926, 29.5, 22.0 ],
					"style" : "",
					"text" : "1"
				}

			}
, 			{
				"box" : 				{
					"bgcolor" : [ 0.223529, 0.235294, 0.219608, 1.0 ],
					"bordercolor" : [ 0.164706, 0.776471, 0.878431, 1.0 ],
					"id" : "obj-56",
					"linecount" : 2,
					"maxclass" : "textedit",
					"numinlets" : 1,
					"numoutlets" : 4,
					"outlettype" : [ "", "int", "", "" ],
					"parameter_enable" : 0,
					"patching_rect" : [ 126.0, 782.097595, 198.0, 35.0 ],
					"presentation" : 1,
					"presentation_linecount" : 2,
					"presentation_rect" : [ 569.503357, 241.699219, 198.0, 35.0 ],
					"style" : "",
					"text" : "websocket connection available at: http://128.61.26.111:8086"
				}

			}
, 			{
				"box" : 				{
					"format" : 6,
					"id" : "obj-54",
					"maxclass" : "flonum",
					"numinlets" : 1,
					"numoutlets" : 2,
					"outlettype" : [ "", "bang" ],
					"parameter_enable" : 1,
					"patching_rect" : [ 383.682617, 1056.0, 50.0, 22.0 ],
					"presentation" : 1,
					"presentation_rect" : [ 573.913696, 485.699219, 50.0, 22.0 ],
					"saved_attribute_attributes" : 					{
						"valueof" : 						{
							"parameter_longname" : "number[8]",
							"parameter_shortname" : "number[8]",
							"parameter_type" : 3,
							"parameter_invisible" : 1
						}

					}
,
					"style" : "",
					"varname" : "number[8]"
				}

			}
, 			{
				"box" : 				{
					"id" : "obj-47",
					"maxclass" : "comment",
					"numinlets" : 1,
					"numoutlets" : 0,
					"patching_rect" : [ 700.0, 1466.097656, 98.0, 20.0 ],
					"style" : "",
					"text" : "Bandpass Filter"
				}

			}
, 			{
				"box" : 				{
					"id" : "obj-46",
					"maxclass" : "comment",
					"numinlets" : 1,
					"numoutlets" : 0,
					"patching_rect" : [ 1034.503418, 1543.597656, 150.0, 20.0 ],
					"style" : "",
					"text" : "Selecting Audio Clip"
				}

			}
, 			{
				"box" : 				{
					"id" : "obj-45",
					"maxclass" : "comment",
					"numinlets" : 1,
					"numoutlets" : 0,
					"patching_rect" : [ 152.076904, 1542.503418, 56.0, 20.0 ],
					"style" : "",
					"text" : "Gain"
				}

			}
, 			{
				"box" : 				{
					"id" : "obj-44",
					"maxclass" : "comment",
					"numinlets" : 1,
					"numoutlets" : 0,
					"patching_rect" : [ 220.076904, 1542.503418, 113.0, 20.0 ],
					"style" : "",
					"text" : "Center Frequency"
				}

			}
, 			{
				"box" : 				{
					"id" : "obj-43",
					"maxclass" : "comment",
					"numinlets" : 1,
					"numoutlets" : 0,
					"patching_rect" : [ 349.576904, 1542.503418, 67.0, 20.0 ],
					"style" : "",
					"text" : "Q value"
				}

			}
, 			{
				"box" : 				{
					"id" : "obj-36",
					"maxclass" : "newobj",
					"numinlets" : 3,
					"numoutlets" : 1,
					"outlettype" : [ "" ],
					"patching_rect" : [ 1081.0, 795.097595, 55.0, 22.0 ],
					"style" : "",
					"text" : "clip 1. 6."
				}

			}
, 			{
				"box" : 				{
					"id" : "obj-35",
					"maxclass" : "newobj",
					"numinlets" : 6,
					"numoutlets" : 1,
					"outlettype" : [ "" ],
					"patching_rect" : [ 1081.0, 760.0, 132.0, 22.0 ],
					"style" : "",
					"text" : "scale 100. 12000. 1. 6."
				}

			}
, 			{
				"box" : 				{
					"id" : "obj-32",
					"maxclass" : "newobj",
					"numinlets" : 3,
					"numoutlets" : 1,
					"outlettype" : [ "" ],
					"patching_rect" : [ 916.0, 795.097595, 62.0, 22.0 ],
					"style" : "",
					"text" : "clip 0. 10."
				}

			}
, 			{
				"box" : 				{
					"id" : "obj-31",
					"maxclass" : "newobj",
					"numinlets" : 6,
					"numoutlets" : 1,
					"outlettype" : [ "" ],
					"patching_rect" : [ 916.0, 760.0, 119.0, 22.0 ],
					"style" : "",
					"text" : "scale 10. 230. 0. 10."
				}

			}
, 			{
				"box" : 				{
					"id" : "obj-28",
					"maxclass" : "newobj",
					"numinlets" : 3,
					"numoutlets" : 1,
					"outlettype" : [ "" ],
					"patching_rect" : [ 739.0, 795.097595, 89.0, 22.0 ],
					"style" : "",
					"text" : "clip 200 10000"
				}

			}
, 			{
				"box" : 				{
					"id" : "obj-22",
					"maxclass" : "number",
					"numinlets" : 1,
					"numoutlets" : 2,
					"outlettype" : [ "", "bang" ],
					"parameter_enable" : 1,
					"patching_rect" : [ 739.0, 840.0, 50.0, 22.0 ],
					"saved_attribute_attributes" : 					{
						"valueof" : 						{
							"parameter_longname" : "number[7]",
							"parameter_shortname" : "number[7]",
							"parameter_type" : 3,
							"parameter_invisible" : 1
						}

					}
,
					"style" : "",
					"varname" : "number[7]"
				}

			}
, 			{
				"box" : 				{
					"id" : "obj-21",
					"maxclass" : "newobj",
					"numinlets" : 6,
					"numoutlets" : 1,
					"outlettype" : [ "" ],
					"patching_rect" : [ 739.0, 760.0, 152.0, 22.0 ],
					"style" : "",
					"text" : "scale 10. 310. 200. 10000."
				}

			}
, 			{
				"box" : 				{
					"id" : "obj-76",
					"maxclass" : "message",
					"numinlets" : 2,
					"numoutlets" : 1,
					"outlettype" : [ "" ],
					"patching_rect" : [ 202.076904, 1415.800537, 31.0, 22.0 ],
					"style" : "",
					"text" : "200"
				}

			}
, 			{
				"box" : 				{
					"fontname" : "Arial",
					"fontsize" : 13.0,
					"format" : 6,
					"id" : "obj-72",
					"maxclass" : "flonum",
					"numinlets" : 1,
					"numoutlets" : 2,
					"outlettype" : [ "", "bang" ],
					"parameter_enable" : 1,
					"patching_rect" : [ 357.076904, 1469.300537, 52.0, 23.0 ],
					"saved_attribute_attributes" : 					{
						"valueof" : 						{
							"parameter_longname" : "number[5]",
							"parameter_shortname" : "number[5]",
							"parameter_type" : 3,
							"parameter_invisible" : 1
						}

					}
,
					"style" : "",
					"varname" : "number[5]"
				}

			}
, 			{
				"box" : 				{
					"fontname" : "Arial",
					"fontsize" : 13.0,
					"id" : "obj-73",
					"maxclass" : "message",
					"numinlets" : 2,
					"numoutlets" : 1,
					"outlettype" : [ "" ],
					"patching_rect" : [ 272.076904, 1415.800537, 109.0, 23.0 ],
					"style" : "",
					"text" : "200, 10000 4000"
				}

			}
, 			{
				"box" : 				{
					"fontname" : "Arial",
					"fontsize" : 13.0,
					"id" : "obj-74",
					"maxclass" : "newobj",
					"numinlets" : 2,
					"numoutlets" : 2,
					"outlettype" : [ "signal", "bang" ],
					"patching_rect" : [ 244.076904, 1469.300537, 65.0, 23.0 ],
					"style" : "",
					"text" : "line~ 200"
				}

			}
, 			{
				"box" : 				{
					"fontname" : "Arial",
					"fontsize" : 13.0,
					"format" : 6,
					"id" : "obj-75",
					"maxclass" : "flonum",
					"numinlets" : 1,
					"numoutlets" : 2,
					"outlettype" : [ "", "bang" ],
					"parameter_enable" : 1,
					"patching_rect" : [ 154.076904, 1469.300537, 52.0, 23.0 ],
					"saved_attribute_attributes" : 					{
						"valueof" : 						{
							"parameter_longname" : "number[6]",
							"parameter_shortname" : "number[6]",
							"parameter_type" : 3,
							"parameter_invisible" : 1
						}

					}
,
					"style" : "",
					"varname" : "number[6]"
				}

			}
, 			{
				"box" : 				{
					"id" : "obj-69",
					"maxclass" : "newobj",
					"numinlets" : 4,
					"numoutlets" : 1,
					"outlettype" : [ "signal" ],
					"patching_rect" : [ 585.503357, 1466.097656, 101.0, 22.0 ],
					"style" : "",
					"text" : "reson~ 1. 200 23"
				}

			}
, 			{
				"box" : 				{
					"fontname" : "Arial",
					"fontsize" : 13.0,
					"id" : "obj-9",
					"linecount" : 21,
					"maxclass" : "comment",
					"numinlets" : 1,
					"numoutlets" : 0,
					"patching_rect" : [ 1034.503418, 1181.597656, 251.496582, 311.0 ],
					"style" : "",
					"text" : "basic: best option for real-time performance\n\nmonophonic: best option for any monophonic source without ambience\n\nrhythmic: best option for drums and percussion when transient preservation is critical\n\ngeneral: balances spectral integrity with transient preservaton\n\nextremestretch: optimized for stretching (slowing down) material, limited to a stretch factor between 0.5 and 4\n\neffcient: best option when CPU efficiency is critical\n\n ",
					"textcolor" : [ 0.501961, 0.501961, 0.501961, 1.0 ]
				}

			}
, 			{
				"box" : 				{
					"attr" : "mode",
					"fontface" : 0,
					"fontname" : "Arial",
					"fontsize" : 13.0,
					"id" : "obj-60",
					"maxclass" : "attrui",
					"numinlets" : 1,
					"numoutlets" : 1,
					"outlettype" : [ "" ],
					"patching_rect" : [ 1034.503418, 1137.097656, 150.0, 23.0 ],
					"style" : "",
					"text_width" : 59.496643
				}

			}
, 			{
				"box" : 				{
					"id" : "obj-30",
					"maxclass" : "newobj",
					"numinlets" : 1,
					"numoutlets" : 2,
					"outlettype" : [ "float", "bang" ],
					"patching_rect" : [ 1034.503418, 1514.800537, 164.0, 22.0 ],
					"style" : "",
					"text" : "buffer~ stuff house_loop.wav"
				}

			}
, 			{
				"box" : 				{
					"id" : "obj-62",
					"maxclass" : "newobj",
					"numinlets" : 2,
					"numoutlets" : 1,
					"outlettype" : [ "float" ],
					"patching_rect" : [ 851.60498, 1354.597656, 42.0, 22.0 ],
					"style" : "",
					"text" : "* 100."
				}

			}
, 			{
				"box" : 				{
					"format" : 6,
					"id" : "obj-63",
					"maxclass" : "flonum",
					"numinlets" : 1,
					"numoutlets" : 2,
					"outlettype" : [ "", "bang" ],
					"parameter_enable" : 1,
					"patching_rect" : [ 851.60498, 1315.597656, 50.0, 22.0 ],
					"saved_attribute_attributes" : 					{
						"valueof" : 						{
							"parameter_longname" : "number[9]",
							"parameter_shortname" : "number",
							"parameter_type" : 3,
							"parameter_initial_enable" : 1,
							"parameter_initial" : [ 0 ],
							"parameter_invisible" : 1
						}

					}
,
					"style" : "",
					"varname" : "number[3]"
				}

			}
, 			{
				"box" : 				{
					"id" : "obj-4",
					"maxclass" : "message",
					"numinlets" : 2,
					"numoutlets" : 1,
					"outlettype" : [ "" ],
					"patching_rect" : [ 851.60498, 1392.597656, 103.0, 22.0 ],
					"style" : "",
					"text" : "pitchshiftcent $1"
				}

			}
, 			{
				"box" : 				{
					"attr" : "timestretch",
					"fontface" : 0,
					"fontname" : "Arial",
					"fontsize" : 13.0,
					"id" : "obj-10",
					"maxclass" : "attrui",
					"numinlets" : 1,
					"numoutlets" : 1,
					"outlettype" : [ "" ],
					"patching_rect" : [ 625.503357, 1224.597656, 150.0, 23.0 ],
					"style" : ""
				}

			}
, 			{
				"box" : 				{
					"format" : 6,
					"id" : "obj-64",
					"maxclass" : "flonum",
					"numinlets" : 1,
					"numoutlets" : 2,
					"outlettype" : [ "", "bang" ],
					"parameter_enable" : 1,
					"patching_rect" : [ 700.0, 1299.597656, 50.0, 22.0 ],
					"saved_attribute_attributes" : 					{
						"valueof" : 						{
							"parameter_longname" : "number[3]",
							"parameter_shortname" : "number",
							"parameter_type" : 3,
							"parameter_initial_enable" : 1,
							"parameter_initial" : [ 1 ],
							"parameter_invisible" : 1
						}

					}
,
					"style" : "",
					"varname" : "number[4]"
				}

			}
, 			{
				"box" : 				{
					"id" : "obj-65",
					"maxclass" : "newobj",
					"numinlets" : 1,
					"numoutlets" : 1,
					"outlettype" : [ "signal" ],
					"patching_rect" : [ 700.0, 1333.597656, 45.0, 22.0 ],
					"style" : "",
					"text" : "sig~ 1"
				}

			}
, 			{
				"box" : 				{
					"id" : "obj-17",
					"maxclass" : "live.gain~",
					"numinlets" : 2,
					"numoutlets" : 5,
					"orientation" : 1,
					"outlettype" : [ "signal", "signal", "", "float", "list" ],
					"parameter_enable" : 1,
					"patching_rect" : [ 585.503357, 1506.800537, 136.0, 38.0 ],
					"presentation" : 1,
					"presentation_rect" : [ 1050.503418, 353.098145, 136.0, 38.0 ],
					"saved_attribute_attributes" : 					{
						"valueof" : 						{
							"parameter_longname" : "volume",
							"parameter_shortname" : "volume",
							"parameter_type" : 1,
							"parameter_mmin" : -70.0,
							"parameter_mmax" : 6.0,
							"parameter_initial_enable" : 1,
							"parameter_initial" : [ -70 ],
							"parameter_unitstyle" : 4,
							"parameter_invisible" : 1
						}

					}
,
					"showname" : 0,
					"varname" : "volume"
				}

			}
, 			{
				"box" : 				{
					"id" : "obj-33",
					"local" : 1,
					"maxclass" : "ezdac~",
					"numinlets" : 2,
					"numoutlets" : 0,
					"patching_rect" : [ 585.503357, 1581.800537, 44.0, 44.0 ],
					"presentation" : 1,
					"presentation_rect" : [ 1096.503418, 404.098145, 44.0, 44.0 ],
					"prototypename" : "helpfile",
					"style" : ""
				}

			}
, 			{
				"box" : 				{
					"fontface" : 0,
					"fontname" : "Arial",
					"fontsize" : 12.0,
					"id" : "obj-67",
					"maxclass" : "newobj",
					"numinlets" : 3,
					"numoutlets" : 3,
					"outlettype" : [ "signal", "signal", "signal" ],
					"patching_rect" : [ 585.503357, 1421.800537, 138.0, 22.0 ],
					"saved_object_attributes" : 					{
						"basictuning" : 440,
						"followglobaltempo" : 0,
						"formantcorrection" : 0,
						"loopend" : [ 0.0, "ms" ],
						"loopstart" : [ 0.0, "ms" ],
						"mode" : "basic",
						"originallength" : [ 3339.31958, "ticks" ],
						"originaltempo" : 55.655327,
						"phase" : [ 0.0, "ticks" ],
						"pitchcorrection" : 0,
						"quality" : "basic",
						"timestretch" : [ 1 ]
					}
,
					"style" : "",
					"text" : "groove~ stuff 2 @loop 1"
				}

			}
, 			{
				"box" : 				{
					"floatoutput" : 1,
					"id" : "obj-48",
					"maxclass" : "slider",
					"min" : -4.0,
					"numinlets" : 1,
					"numoutlets" : 1,
					"outlettype" : [ "" ],
					"parameter_enable" : 1,
					"patching_rect" : [ 317.682617, 881.898926, 50.0, 122.0 ],
					"presentation" : 1,
					"presentation_rect" : [ 569.503357, 332.398926, 58.82074, 122.0 ],
					"saved_attribute_attributes" : 					{
						"valueof" : 						{
							"parameter_longname" : "slider[4]",
							"parameter_shortname" : "slider",
							"parameter_type" : 3,
							"parameter_initial_enable" : 1,
							"parameter_initial" : [ 1 ],
							"parameter_invisible" : 1
						}

					}
,
					"size" : 9.0,
					"style" : "",
					"varname" : "slider[3]"
				}

			}
, 			{
				"box" : 				{
					"fontface" : 1,
					"id" : "obj-42",
					"maxclass" : "comment",
					"numinlets" : 1,
					"numoutlets" : 0,
					"patching_rect" : [ 1064.0, 582.5, 98.0, 20.0 ],
					"presentation" : 1,
					"presentation_rect" : [ 302.0, 584.0, 98.0, 20.0 ],
					"style" : "",
					"text" : "COLOR: AREA",
					"textcolor" : [ 1.0, 1.0, 1.0, 1.0 ]
				}

			}
, 			{
				"box" : 				{
					"fontface" : 1,
					"id" : "obj-41",
					"linecount" : 2,
					"maxclass" : "comment",
					"numinlets" : 1,
					"numoutlets" : 0,
					"patching_rect" : [ 937.0, 576.0, 98.0, 33.0 ],
					"presentation" : 1,
					"presentation_rect" : [ 163.0, 584.0, 106.0, 20.0 ],
					"style" : "",
					"text" : "COLOR: HEIGHT",
					"textcolor" : [ 1.0, 1.0, 1.0, 1.0 ]
				}

			}
, 			{
				"box" : 				{
					"fontface" : 1,
					"id" : "obj-57",
					"maxclass" : "comment",
					"numinlets" : 1,
					"numoutlets" : 0,
					"patching_rect" : [ 825.0, 589.0, 98.0, 20.0 ],
					"presentation" : 1,
					"presentation_rect" : [ 32.0, 584.0, 98.0, 20.0 ],
					"style" : "",
					"text" : "COLOR: WIDTH",
					"textcolor" : [ 1.0, 1.0, 1.0, 1.0 ]
				}

			}
, 			{
				"box" : 				{
					"id" : "obj-40",
					"maxclass" : "number",
					"numinlets" : 1,
					"numoutlets" : 2,
					"outlettype" : [ "", "bang" ],
					"parameter_enable" : 1,
					"patching_rect" : [ 1060.0, 626.0, 50.0, 22.0 ],
					"presentation" : 1,
					"presentation_rect" : [ 326.0, 546.0, 50.0, 22.0 ],
					"saved_attribute_attributes" : 					{
						"valueof" : 						{
							"parameter_longname" : "number[2]",
							"parameter_shortname" : "number[2]",
							"parameter_type" : 3,
							"parameter_invisible" : 1
						}

					}
,
					"style" : "",
					"varname" : "number[2]"
				}

			}
, 			{
				"box" : 				{
					"id" : "obj-39",
					"maxclass" : "number",
					"numinlets" : 1,
					"numoutlets" : 2,
					"outlettype" : [ "", "bang" ],
					"parameter_enable" : 1,
					"patching_rect" : [ 967.0, 626.0, 50.0, 22.0 ],
					"presentation" : 1,
					"presentation_rect" : [ 191.0, 546.0, 50.0, 22.0 ],
					"saved_attribute_attributes" : 					{
						"valueof" : 						{
							"parameter_longname" : "number[1]",
							"parameter_shortname" : "number[1]",
							"parameter_type" : 3,
							"parameter_invisible" : 1
						}

					}
,
					"style" : "",
					"varname" : "number[1]"
				}

			}
, 			{
				"box" : 				{
					"id" : "obj-38",
					"maxclass" : "number",
					"numinlets" : 1,
					"numoutlets" : 2,
					"outlettype" : [ "", "bang" ],
					"parameter_enable" : 1,
					"patching_rect" : [ 859.0, 626.0, 50.0, 22.0 ],
					"presentation" : 1,
					"presentation_rect" : [ 56.0, 546.0, 50.0, 22.0 ],
					"saved_attribute_attributes" : 					{
						"valueof" : 						{
							"parameter_longname" : "number",
							"parameter_shortname" : "number",
							"parameter_type" : 3,
							"parameter_invisible" : 1
						}

					}
,
					"style" : "",
					"varname" : "number"
				}

			}
, 			{
				"box" : 				{
					"id" : "obj-37",
					"linecount" : 2,
					"maxclass" : "message",
					"numinlets" : 2,
					"numoutlets" : 1,
					"outlettype" : [ "" ],
					"patching_rect" : [ 232.0, 539.5, 143.0, 35.0 ],
					"style" : "",
					"text" : "0.098039 0.278431 0.52549 1."
				}

			}
, 			{
				"box" : 				{
					"id" : "obj-34",
					"maxclass" : "newobj",
					"numinlets" : 3,
					"numoutlets" : 4,
					"outlettype" : [ "", "", "", "" ],
					"patcher" : 					{
						"fileversion" : 1,
						"appversion" : 						{
							"major" : 7,
							"minor" : 3,
							"revision" : 4,
							"architecture" : "x86",
							"modernui" : 1
						}
,
						"rect" : [ 34.0, 79.0, 1372.0, 707.0 ],
						"bglocked" : 0,
						"openinpresentation" : 1,
						"default_fontsize" : 12.0,
						"default_fontface" : 0,
						"default_fontname" : "Arial",
						"gridonopen" : 1,
						"gridsize" : [ 15.0, 15.0 ],
						"gridsnaponopen" : 1,
						"objectsnaponopen" : 1,
						"statusbarvisible" : 2,
						"toolbarvisible" : 1,
						"lefttoolbarpinned" : 0,
						"toptoolbarpinned" : 0,
						"righttoolbarpinned" : 0,
						"bottomtoolbarpinned" : 0,
						"toolbars_unpinned_last_save" : 0,
						"tallnewobj" : 0,
						"boxanimatetime" : 200,
						"enablehscroll" : 1,
						"enablevscroll" : 1,
						"devicewidth" : 0.0,
						"description" : "",
						"digest" : "",
						"tags" : "",
						"style" : "",
						"subpatcher_template" : "",
						"boxes" : [ 							{
								"box" : 								{
									"fontface" : 1,
									"id" : "obj-58",
									"maxclass" : "comment",
									"numinlets" : 1,
									"numoutlets" : 0,
									"patching_rect" : [ 616.25, 555.0, 106.0, 20.0 ],
									"style" : "",
									"text" : "BALL 1: HEIGHT",
									"textcolor" : [ 1.0, 1.0, 1.0, 1.0 ]
								}

							}
, 							{
								"box" : 								{
									"fontface" : 1,
									"id" : "obj-57",
									"maxclass" : "comment",
									"numinlets" : 1,
									"numoutlets" : 0,
									"patching_rect" : [ 442.0, 555.0, 98.0, 20.0 ],
									"style" : "",
									"text" : "BALL 1: WIDTH",
									"textcolor" : [ 1.0, 1.0, 1.0, 1.0 ]
								}

							}
, 							{
								"box" : 								{
									"fontface" : 1,
									"id" : "obj-48",
									"maxclass" : "comment",
									"numinlets" : 1,
									"numoutlets" : 0,
									"patching_rect" : [ 397.0, 717.0, 98.0, 20.0 ],
									"presentation" : 1,
									"presentation_rect" : [ 370.0, 162.0, 98.0, 20.0 ],
									"style" : "",
									"text" : "BALL 1: AREA",
									"textcolor" : [ 1.0, 1.0, 1.0, 1.0 ]
								}

							}
, 							{
								"box" : 								{
									"fontface" : 1,
									"id" : "obj-44",
									"linecount" : 2,
									"maxclass" : "comment",
									"numinlets" : 1,
									"numoutlets" : 0,
									"patching_rect" : [ 250.0, 717.0, 115.0, 33.0 ],
									"presentation" : 1,
									"presentation_linecount" : 2,
									"presentation_rect" : [ 223.0, 162.0, 115.0, 33.0 ],
									"style" : "",
									"text" : "BALL 1: Y VALUE\n(MIDPOINT) ",
									"textcolor" : [ 1.0, 1.0, 1.0, 1.0 ]
								}

							}
, 							{
								"box" : 								{
									"id" : "obj-35",
									"maxclass" : "newobj",
									"numinlets" : 1,
									"numoutlets" : 0,
									"patching_rect" : [ 250.0, 689.0, 59.0, 22.0 ],
									"presentation" : 1,
									"presentation_rect" : [ 223.0, 134.0, 59.0, 22.0 ],
									"style" : "",
									"text" : "s color1y"
								}

							}
, 							{
								"box" : 								{
									"id" : "obj-10",
									"maxclass" : "newobj",
									"numinlets" : 1,
									"numoutlets" : 0,
									"patching_rect" : [ 112.0, 689.0, 59.0, 22.0 ],
									"presentation" : 1,
									"presentation_rect" : [ 85.0, 134.0, 59.0, 22.0 ],
									"style" : "",
									"text" : "s color1x"
								}

							}
, 							{
								"box" : 								{
									"id" : "obj-6",
									"maxclass" : "newobj",
									"numinlets" : 1,
									"numoutlets" : 0,
									"patching_rect" : [ 397.0, 689.0, 77.0, 22.0 ],
									"presentation" : 1,
									"presentation_rect" : [ 370.0, 134.0, 77.0, 22.0 ],
									"style" : "",
									"text" : "s color1area"
								}

							}
, 							{
								"box" : 								{
									"id" : "obj-55",
									"maxclass" : "newobj",
									"numinlets" : 2,
									"numoutlets" : 1,
									"outlettype" : [ "int" ],
									"patching_rect" : [ 173.5, 511.0, 29.5, 22.0 ],
									"style" : "",
									"text" : "/ 2"
								}

							}
, 							{
								"box" : 								{
									"id" : "obj-54",
									"maxclass" : "newobj",
									"numinlets" : 2,
									"numoutlets" : 1,
									"outlettype" : [ "int" ],
									"patching_rect" : [ 166.0, 461.0, 29.5, 22.0 ],
									"style" : "",
									"text" : "+"
								}

							}
, 							{
								"box" : 								{
									"id" : "obj-51",
									"maxclass" : "number",
									"numinlets" : 1,
									"numoutlets" : 2,
									"outlettype" : [ "", "bang" ],
									"parameter_enable" : 0,
									"patching_rect" : [ 250.0, 626.0, 50.0, 22.0 ],
									"presentation" : 1,
									"presentation_rect" : [ 223.0, 71.0, 50.0, 22.0 ],
									"style" : ""
								}

							}
, 							{
								"box" : 								{
									"id" : "obj-52",
									"maxclass" : "newobj",
									"numinlets" : 2,
									"numoutlets" : 1,
									"outlettype" : [ "int" ],
									"patching_rect" : [ 224.0, 511.0, 29.5, 22.0 ],
									"style" : "",
									"text" : "/ 2"
								}

							}
, 							{
								"box" : 								{
									"id" : "obj-53",
									"maxclass" : "newobj",
									"numinlets" : 2,
									"numoutlets" : 1,
									"outlettype" : [ "int" ],
									"patching_rect" : [ 214.25, 461.0, 29.5, 22.0 ],
									"style" : "",
									"text" : "+"
								}

							}
, 							{
								"box" : 								{
									"id" : "obj-50",
									"maxclass" : "number",
									"numinlets" : 1,
									"numoutlets" : 2,
									"outlettype" : [ "", "bang" ],
									"parameter_enable" : 0,
									"patching_rect" : [ 112.0, 626.0, 50.0, 22.0 ],
									"presentation" : 1,
									"presentation_rect" : [ 85.0, 71.0, 50.0, 22.0 ],
									"style" : ""
								}

							}
, 							{
								"box" : 								{
									"fontface" : 1,
									"id" : "obj-43",
									"linecount" : 2,
									"maxclass" : "comment",
									"numinlets" : 1,
									"numoutlets" : 0,
									"patching_rect" : [ 109.0, 717.0, 112.0, 33.0 ],
									"presentation" : 1,
									"presentation_linecount" : 2,
									"presentation_rect" : [ 82.0, 162.0, 112.0, 33.0 ],
									"style" : "",
									"text" : "BALL 1: X VALUE\n(MIDPOINT) ",
									"textcolor" : [ 1.0, 1.0, 1.0, 1.0 ]
								}

							}
, 							{
								"box" : 								{
									"comment" : "",
									"id" : "obj-41",
									"index" : 4,
									"maxclass" : "outlet",
									"numinlets" : 1,
									"numoutlets" : 0,
									"patching_rect" : [ 397.0, 654.0, 30.0, 30.0 ],
									"presentation" : 1,
									"presentation_rect" : [ 370.0, 99.0, 30.0, 30.0 ],
									"style" : ""
								}

							}
, 							{
								"box" : 								{
									"comment" : "",
									"id" : "obj-40",
									"index" : 3,
									"maxclass" : "outlet",
									"numinlets" : 1,
									"numoutlets" : 0,
									"patching_rect" : [ 250.0, 654.0, 30.0, 30.0 ],
									"presentation" : 1,
									"presentation_rect" : [ 223.0, 99.0, 30.0, 30.0 ],
									"style" : ""
								}

							}
, 							{
								"box" : 								{
									"comment" : "",
									"id" : "obj-39",
									"index" : 2,
									"maxclass" : "outlet",
									"numinlets" : 1,
									"numoutlets" : 0,
									"patching_rect" : [ 112.0, 654.0, 30.0, 30.0 ],
									"presentation" : 1,
									"presentation_rect" : [ 85.0, 99.0, 30.0, 30.0 ],
									"style" : ""
								}

							}
, 							{
								"box" : 								{
									"id" : "obj-36",
									"maxclass" : "number",
									"numinlets" : 1,
									"numoutlets" : 2,
									"outlettype" : [ "", "bang" ],
									"parameter_enable" : 0,
									"patching_rect" : [ 397.0, 626.0, 50.0, 22.0 ],
									"presentation" : 1,
									"presentation_rect" : [ 370.0, 71.0, 50.0, 22.0 ],
									"style" : ""
								}

							}
, 							{
								"box" : 								{
									"id" : "obj-33",
									"maxclass" : "newobj",
									"numinlets" : 2,
									"numoutlets" : 1,
									"outlettype" : [ "int" ],
									"patching_rect" : [ 563.0, 555.0, 29.5, 22.0 ],
									"style" : "",
									"text" : "*"
								}

							}
, 							{
								"box" : 								{
									"id" : "obj-26",
									"maxclass" : "number",
									"numinlets" : 1,
									"numoutlets" : 2,
									"outlettype" : [ "", "bang" ],
									"parameter_enable" : 0,
									"patching_rect" : [ 616.25, 511.0, 50.0, 22.0 ],
									"style" : ""
								}

							}
, 							{
								"box" : 								{
									"id" : "obj-31",
									"maxclass" : "newobj",
									"numinlets" : 2,
									"numoutlets" : 1,
									"outlettype" : [ "int" ],
									"patching_rect" : [ 583.0, 461.0, 29.5, 22.0 ],
									"style" : "",
									"text" : "-"
								}

							}
, 							{
								"box" : 								{
									"id" : "obj-25",
									"maxclass" : "number",
									"numinlets" : 1,
									"numoutlets" : 2,
									"outlettype" : [ "", "bang" ],
									"parameter_enable" : 0,
									"patching_rect" : [ 481.0, 511.0, 50.0, 22.0 ],
									"style" : ""
								}

							}
, 							{
								"box" : 								{
									"id" : "obj-9",
									"maxclass" : "newobj",
									"numinlets" : 2,
									"numoutlets" : 1,
									"outlettype" : [ "int" ],
									"patching_rect" : [ 501.5, 461.0, 29.5, 22.0 ],
									"style" : "",
									"text" : "-"
								}

							}
, 							{
								"box" : 								{
									"id" : "obj-8",
									"maxclass" : "comment",
									"numinlets" : 1,
									"numoutlets" : 0,
									"patching_rect" : [ 493.0, 380.0, 91.0, 20.0 ],
									"style" : "",
									"text" : "right bound x/y"
								}

							}
, 							{
								"box" : 								{
									"id" : "obj-7",
									"maxclass" : "comment",
									"numinlets" : 1,
									"numoutlets" : 0,
									"patching_rect" : [ 53.0, 380.0, 91.0, 20.0 ],
									"style" : "",
									"text" : "left bound x/y"
								}

							}
, 							{
								"box" : 								{
									"id" : "obj-32",
									"maxclass" : "message",
									"numinlets" : 2,
									"numoutlets" : 1,
									"outlettype" : [ "" ],
									"patching_rect" : [ 284.0, 516.0, 160.0, 22.0 ],
									"style" : "",
									"text" : "clear, framerect $1 $2 $3 $4"
								}

							}
, 							{
								"box" : 								{
									"id" : "obj-30",
									"maxclass" : "newobj",
									"numinlets" : 4,
									"numoutlets" : 1,
									"outlettype" : [ "" ],
									"patching_rect" : [ 278.0, 447.0, 76.0, 22.0 ],
									"style" : "",
									"text" : "pack 0 0 0 0"
								}

							}
, 							{
								"box" : 								{
									"comment" : "",
									"id" : "obj-4",
									"index" : 1,
									"maxclass" : "outlet",
									"numinlets" : 1,
									"numoutlets" : 0,
									"patching_rect" : [ 23.0, 654.0, 30.0, 30.0 ],
									"style" : ""
								}

							}
, 							{
								"box" : 								{
									"id" : "obj-29",
									"linecount" : 5,
									"maxclass" : "comment",
									"numinlets" : 1,
									"numoutlets" : 0,
									"patching_rect" : [ 53.0, 273.0, 150.0, 74.0 ],
									"style" : "",
									"text" : "Find bounds generates the rectangle data from input variables, wraps colored pixels in a rectangle"
								}

							}
, 							{
								"box" : 								{
									"id" : "obj-24",
									"maxclass" : "number",
									"numinlets" : 1,
									"numoutlets" : 2,
									"outlettype" : [ "", "bang" ],
									"parameter_enable" : 0,
									"patching_rect" : [ 424.0, 380.0, 50.0, 22.0 ],
									"style" : ""
								}

							}
, 							{
								"box" : 								{
									"id" : "obj-23",
									"maxclass" : "number",
									"numinlets" : 1,
									"numoutlets" : 2,
									"outlettype" : [ "", "bang" ],
									"parameter_enable" : 0,
									"patching_rect" : [ 266.0, 380.0, 50.0, 22.0 ],
									"style" : ""
								}

							}
, 							{
								"box" : 								{
									"id" : "obj-22",
									"maxclass" : "number",
									"numinlets" : 1,
									"numoutlets" : 2,
									"outlettype" : [ "", "bang" ],
									"parameter_enable" : 0,
									"patching_rect" : [ 352.0, 380.0, 50.0, 22.0 ],
									"style" : ""
								}

							}
, 							{
								"box" : 								{
									"id" : "obj-21",
									"maxclass" : "number",
									"numinlets" : 1,
									"numoutlets" : 2,
									"outlettype" : [ "", "bang" ],
									"parameter_enable" : 0,
									"patching_rect" : [ 204.0, 380.0, 50.0, 22.0 ],
									"style" : ""
								}

							}
, 							{
								"box" : 								{
									"id" : "obj-19",
									"maxclass" : "newobj",
									"numinlets" : 1,
									"numoutlets" : 2,
									"outlettype" : [ "int", "int" ],
									"patching_rect" : [ 350.0, 332.0, 69.0, 22.0 ],
									"style" : "",
									"text" : "unpack 0 0"
								}

							}
, 							{
								"box" : 								{
									"id" : "obj-18",
									"maxclass" : "newobj",
									"numinlets" : 1,
									"numoutlets" : 2,
									"outlettype" : [ "int", "int" ],
									"patching_rect" : [ 236.5, 332.0, 69.0, 22.0 ],
									"style" : "",
									"text" : "unpack 0 0"
								}

							}
, 							{
								"box" : 								{
									"id" : "obj-17",
									"maxclass" : "newobj",
									"numinlets" : 1,
									"numoutlets" : 3,
									"outlettype" : [ "", "", "" ],
									"patching_rect" : [ 278.0, 289.0, 81.0, 22.0 ],
									"style" : "",
									"text" : "jit.findbounds"
								}

							}
, 							{
								"box" : 								{
									"id" : "obj-27",
									"linecount" : 3,
									"maxclass" : "comment",
									"numinlets" : 1,
									"numoutlets" : 0,
									"patching_rect" : [ 53.0, 207.0, 150.0, 47.0 ],
									"style" : "",
									"text" : "We bound the upper and lower reaches to sit between 0 and 1"
								}

							}
, 							{
								"box" : 								{
									"id" : "obj-16",
									"maxclass" : "newobj",
									"numinlets" : 1,
									"numoutlets" : 1,
									"outlettype" : [ "" ],
									"patching_rect" : [ 329.0, 224.0, 94.0, 22.0 ],
									"style" : "",
									"text" : "prepend max 1."
								}

							}
, 							{
								"box" : 								{
									"id" : "obj-15",
									"maxclass" : "newobj",
									"numinlets" : 1,
									"numoutlets" : 1,
									"outlettype" : [ "" ],
									"patching_rect" : [ 224.0, 224.0, 91.0, 22.0 ],
									"style" : "",
									"text" : "prepend min 0."
								}

							}
, 							{
								"box" : 								{
									"id" : "obj-14",
									"maxclass" : "newobj",
									"numinlets" : 1,
									"numoutlets" : 1,
									"outlettype" : [ "" ],
									"patching_rect" : [ 329.0, 148.0, 90.0, 22.0 ],
									"style" : "",
									"text" : "vexpr $f1 + 0.1"
								}

							}
, 							{
								"box" : 								{
									"id" : "obj-13",
									"maxclass" : "newobj",
									"numinlets" : 1,
									"numoutlets" : 1,
									"outlettype" : [ "" ],
									"patching_rect" : [ 224.0, 148.0, 87.0, 22.0 ],
									"style" : "",
									"text" : "vexpr $f1 - 0.1"
								}

							}
, 							{
								"box" : 								{
									"id" : "obj-12",
									"linecount" : 4,
									"maxclass" : "comment",
									"numinlets" : 1,
									"numoutlets" : 0,
									"patching_rect" : [ 53.0, 129.0, 150.0, 60.0 ],
									"style" : "",
									"text" : "We turn color values from center floating point -1 and +1 to give us coordinates"
								}

							}
, 							{
								"box" : 								{
									"id" : "obj-5",
									"maxclass" : "comment",
									"numinlets" : 1,
									"numoutlets" : 0,
									"patching_rect" : [ 239.0, 33.0, 225.0, 20.0 ],
									"style" : "",
									"text" : "Inlets 1 & 2 from pwindow, 3 from grabbr"
								}

							}
, 							{
								"box" : 								{
									"comment" : "",
									"id" : "obj-3",
									"index" : 3,
									"maxclass" : "inlet",
									"numinlets" : 0,
									"numoutlets" : 1,
									"outlettype" : [ "jit_matrix" ],
									"patching_rect" : [ 408.0, 60.0, 30.0, 30.0 ],
									"style" : ""
								}

							}
, 							{
								"box" : 								{
									"comment" : "",
									"id" : "obj-2",
									"index" : 2,
									"maxclass" : "inlet",
									"numinlets" : 0,
									"numoutlets" : 1,
									"outlettype" : [ "" ],
									"patching_rect" : [ 329.0, 60.0, 30.0, 30.0 ],
									"style" : ""
								}

							}
, 							{
								"box" : 								{
									"comment" : "",
									"id" : "obj-1",
									"index" : 1,
									"maxclass" : "inlet",
									"numinlets" : 0,
									"numoutlets" : 1,
									"outlettype" : [ "" ],
									"patching_rect" : [ 239.0, 60.0, 30.0, 30.0 ],
									"style" : ""
								}

							}
 ],
						"lines" : [ 							{
								"patchline" : 								{
									"destination" : [ "obj-13", 0 ],
									"midpoints" : [ 248.5, 118.5, 233.5, 118.5 ],
									"source" : [ "obj-1", 0 ]
								}

							}
, 							{
								"patchline" : 								{
									"destination" : [ "obj-15", 0 ],
									"source" : [ "obj-13", 0 ]
								}

							}
, 							{
								"patchline" : 								{
									"destination" : [ "obj-16", 0 ],
									"source" : [ "obj-14", 0 ]
								}

							}
, 							{
								"patchline" : 								{
									"destination" : [ "obj-17", 0 ],
									"midpoints" : [ 233.5, 267.0, 287.5, 267.0 ],
									"source" : [ "obj-15", 0 ]
								}

							}
, 							{
								"patchline" : 								{
									"destination" : [ "obj-17", 0 ],
									"midpoints" : [ 338.5, 267.0, 287.5, 267.0 ],
									"source" : [ "obj-16", 0 ]
								}

							}
, 							{
								"patchline" : 								{
									"destination" : [ "obj-18", 0 ],
									"midpoints" : [ 287.5, 321.0, 246.0, 321.0 ],
									"source" : [ "obj-17", 0 ]
								}

							}
, 							{
								"patchline" : 								{
									"destination" : [ "obj-19", 0 ],
									"midpoints" : [ 318.5, 321.0, 359.5, 321.0 ],
									"source" : [ "obj-17", 1 ]
								}

							}
, 							{
								"patchline" : 								{
									"destination" : [ "obj-21", 0 ],
									"midpoints" : [ 246.0, 366.5, 213.5, 366.5 ],
									"source" : [ "obj-18", 0 ]
								}

							}
, 							{
								"patchline" : 								{
									"destination" : [ "obj-23", 0 ],
									"midpoints" : [ 296.0, 366.5, 275.5, 366.5 ],
									"source" : [ "obj-18", 1 ]
								}

							}
, 							{
								"patchline" : 								{
									"destination" : [ "obj-22", 0 ],
									"source" : [ "obj-19", 0 ]
								}

							}
, 							{
								"patchline" : 								{
									"destination" : [ "obj-24", 0 ],
									"midpoints" : [ 409.5, 366.5, 433.5, 366.5 ],
									"source" : [ "obj-19", 1 ]
								}

							}
, 							{
								"patchline" : 								{
									"destination" : [ "obj-14", 0 ],
									"source" : [ "obj-2", 0 ]
								}

							}
, 							{
								"patchline" : 								{
									"destination" : [ "obj-30", 0 ],
									"midpoints" : [ 213.5, 424.0, 287.5, 424.0 ],
									"order" : 1,
									"source" : [ "obj-21", 0 ]
								}

							}
, 							{
								"patchline" : 								{
									"destination" : [ "obj-54", 1 ],
									"midpoints" : [ 213.5, 431.0, 186.0, 431.0 ],
									"order" : 2,
									"source" : [ "obj-21", 0 ]
								}

							}
, 							{
								"patchline" : 								{
									"destination" : [ "obj-9", 1 ],
									"midpoints" : [ 213.5, 426.5, 521.5, 426.5 ],
									"order" : 0,
									"source" : [ "obj-21", 0 ]
								}

							}
, 							{
								"patchline" : 								{
									"destination" : [ "obj-30", 2 ],
									"midpoints" : [ 361.5, 424.0, 325.5, 424.0 ],
									"order" : 1,
									"source" : [ "obj-22", 0 ]
								}

							}
, 							{
								"patchline" : 								{
									"destination" : [ "obj-54", 0 ],
									"midpoints" : [ 361.5, 431.0, 175.5, 431.0 ],
									"order" : 2,
									"source" : [ "obj-22", 0 ]
								}

							}
, 							{
								"patchline" : 								{
									"destination" : [ "obj-9", 0 ],
									"midpoints" : [ 361.5, 426.5, 511.0, 426.5 ],
									"order" : 0,
									"source" : [ "obj-22", 0 ]
								}

							}
, 							{
								"patchline" : 								{
									"destination" : [ "obj-30", 1 ],
									"midpoints" : [ 275.5, 424.0, 306.5, 424.0 ],
									"order" : 1,
									"source" : [ "obj-23", 0 ]
								}

							}
, 							{
								"patchline" : 								{
									"destination" : [ "obj-31", 1 ],
									"midpoints" : [ 275.5, 424.0, 603.0, 424.0 ],
									"order" : 0,
									"source" : [ "obj-23", 0 ]
								}

							}
, 							{
								"patchline" : 								{
									"destination" : [ "obj-53", 1 ],
									"midpoints" : [ 275.5, 431.0, 234.25, 431.0 ],
									"order" : 2,
									"source" : [ "obj-23", 0 ]
								}

							}
, 							{
								"patchline" : 								{
									"destination" : [ "obj-30", 3 ],
									"midpoints" : [ 433.5, 424.0, 344.5, 424.0 ],
									"order" : 1,
									"source" : [ "obj-24", 0 ]
								}

							}
, 							{
								"patchline" : 								{
									"destination" : [ "obj-31", 0 ],
									"midpoints" : [ 433.5, 424.0, 592.5, 424.0 ],
									"order" : 0,
									"source" : [ "obj-24", 0 ]
								}

							}
, 							{
								"patchline" : 								{
									"destination" : [ "obj-53", 0 ],
									"midpoints" : [ 433.5, 431.0, 223.75, 431.0 ],
									"order" : 2,
									"source" : [ "obj-24", 0 ]
								}

							}
, 							{
								"patchline" : 								{
									"destination" : [ "obj-33", 0 ],
									"midpoints" : [ 490.5, 543.5, 572.5, 543.5 ],
									"source" : [ "obj-25", 0 ]
								}

							}
, 							{
								"patchline" : 								{
									"destination" : [ "obj-33", 1 ],
									"midpoints" : [ 625.75, 543.5, 583.0, 543.5 ],
									"source" : [ "obj-26", 0 ]
								}

							}
, 							{
								"patchline" : 								{
									"destination" : [ "obj-17", 0 ],
									"midpoints" : [ 417.5, 117.0, 456.0, 117.0, 456.0, 270.0, 287.5, 270.0 ],
									"source" : [ "obj-3", 0 ]
								}

							}
, 							{
								"patchline" : 								{
									"destination" : [ "obj-32", 0 ],
									"midpoints" : [ 287.5, 492.0, 293.5, 492.0 ],
									"source" : [ "obj-30", 0 ]
								}

							}
, 							{
								"patchline" : 								{
									"destination" : [ "obj-26", 0 ],
									"midpoints" : [ 592.5, 489.5, 625.75, 489.5 ],
									"source" : [ "obj-31", 0 ]
								}

							}
, 							{
								"patchline" : 								{
									"destination" : [ "obj-4", 0 ],
									"midpoints" : [ 293.5, 553.0, 32.5, 553.0 ],
									"source" : [ "obj-32", 0 ]
								}

							}
, 							{
								"patchline" : 								{
									"destination" : [ "obj-36", 0 ],
									"midpoints" : [ 572.5, 601.0, 406.5, 601.0 ],
									"source" : [ "obj-33", 0 ]
								}

							}
, 							{
								"patchline" : 								{
									"destination" : [ "obj-41", 0 ],
									"order" : 0,
									"source" : [ "obj-36", 0 ]
								}

							}
, 							{
								"patchline" : 								{
									"destination" : [ "obj-6", 0 ],
									"order" : 1,
									"source" : [ "obj-36", 0 ]
								}

							}
, 							{
								"patchline" : 								{
									"destination" : [ "obj-10", 0 ],
									"order" : 1,
									"source" : [ "obj-50", 0 ]
								}

							}
, 							{
								"patchline" : 								{
									"destination" : [ "obj-39", 0 ],
									"order" : 0,
									"source" : [ "obj-50", 0 ]
								}

							}
, 							{
								"patchline" : 								{
									"destination" : [ "obj-35", 0 ],
									"order" : 1,
									"source" : [ "obj-51", 0 ]
								}

							}
, 							{
								"patchline" : 								{
									"destination" : [ "obj-40", 0 ],
									"order" : 0,
									"source" : [ "obj-51", 0 ]
								}

							}
, 							{
								"patchline" : 								{
									"destination" : [ "obj-51", 0 ],
									"midpoints" : [ 233.5, 570.0, 259.5, 570.0 ],
									"source" : [ "obj-52", 0 ]
								}

							}
, 							{
								"patchline" : 								{
									"destination" : [ "obj-52", 0 ],
									"midpoints" : [ 223.75, 496.5, 233.5, 496.5 ],
									"source" : [ "obj-53", 0 ]
								}

							}
, 							{
								"patchline" : 								{
									"destination" : [ "obj-55", 0 ],
									"midpoints" : [ 175.5, 496.5, 183.0, 496.5 ],
									"source" : [ "obj-54", 0 ]
								}

							}
, 							{
								"patchline" : 								{
									"destination" : [ "obj-50", 0 ],
									"midpoints" : [ 183.0, 570.0, 121.5, 570.0 ],
									"source" : [ "obj-55", 0 ]
								}

							}
, 							{
								"patchline" : 								{
									"destination" : [ "obj-25", 0 ],
									"midpoints" : [ 511.0, 492.0, 490.5, 492.0 ],
									"source" : [ "obj-9", 0 ]
								}

							}
 ]
					}
,
					"patching_rect" : [ 874.0, 694.0, 88.0, 22.0 ],
					"saved_object_attributes" : 					{
						"description" : "",
						"digest" : "",
						"globalpatchername" : "",
						"style" : "",
						"tags" : ""
					}
,
					"style" : "",
					"text" : "p trackingData"
				}

			}
, 			{
				"box" : 				{
					"id" : "obj-29",
					"maxclass" : "comment",
					"numinlets" : 1,
					"numoutlets" : 0,
					"patching_rect" : [ 445.0, 230.0, 155.0, 20.0 ],
					"style" : "",
					"text" : "Canvas to draw square on\n"
				}

			}
, 			{
				"box" : 				{
					"id" : "obj-26",
					"maxclass" : "newobj",
					"numinlets" : 1,
					"numoutlets" : 2,
					"outlettype" : [ "jit_matrix", "" ],
					"patching_rect" : [ 615.0, 229.0, 121.0, 22.0 ],
					"style" : "",
					"text" : "jit.lcd 4 char 320 240"
				}

			}
, 			{
				"box" : 				{
					"id" : "obj-25",
					"maxclass" : "jit.pwindow",
					"numinlets" : 1,
					"numoutlets" : 2,
					"outlettype" : [ "", "" ],
					"patching_rect" : [ 615.0, 282.0, 320.0, 240.0 ],
					"presentation" : 1,
					"presentation_rect" : [ 56.0, 292.0, 320.0, 240.0 ]
				}

			}
, 			{
				"box" : 				{
					"id" : "obj-24",
					"linecount" : 2,
					"maxclass" : "comment",
					"numinlets" : 1,
					"numoutlets" : 0,
					"patching_rect" : [ 29.0, 590.0, 150.0, 33.0 ],
					"style" : "",
					"text" : "swatch object to select color to track"
				}

			}
, 			{
				"box" : 				{
					"id" : "obj-20",
					"linecount" : 2,
					"maxclass" : "comment",
					"numinlets" : 1,
					"numoutlets" : 0,
					"patching_rect" : [ 29.0, 368.0, 150.0, 33.0 ],
					"style" : "",
					"text" : "suckah object on webcam feed to track color"
				}

			}
, 			{
				"box" : 				{
					"id" : "obj-19",
					"maxclass" : "swatch",
					"numinlets" : 3,
					"numoutlets" : 2,
					"outlettype" : [ "", "float" ],
					"parameter_enable" : 1,
					"patching_rect" : [ 232.0, 599.0, 128.0, 32.0 ],
					"saturation" : 0.686275,
					"saved_attribute_attributes" : 					{
						"valueof" : 						{
							"parameter_longname" : "swatch",
							"parameter_shortname" : "swatch",
							"parameter_type" : 3,
							"parameter_invisible" : 1
						}

					}
,
					"varname" : "swatch"
				}

			}
, 			{
				"box" : 				{
					"id" : "obj-18",
					"maxclass" : "suckah",
					"numinlets" : 1,
					"numoutlets" : 1,
					"outlettype" : [ "" ],
					"patching_rect" : [ 232.0, 282.0, 320.0, 240.0 ],
					"presentation" : 1,
					"presentation_rect" : [ 56.0, 50.0, 320.0, 240.0 ]
				}

			}
, 			{
				"box" : 				{
					"id" : "obj-15",
					"maxclass" : "message",
					"numinlets" : 2,
					"numoutlets" : 1,
					"outlettype" : [ "" ],
					"patching_rect" : [ 360.0, 85.0, 39.0, 22.0 ],
					"style" : "",
					"text" : "close"
				}

			}
, 			{
				"box" : 				{
					"id" : "obj-14",
					"maxclass" : "comment",
					"numinlets" : 1,
					"numoutlets" : 0,
					"patching_rect" : [ 29.0, 85.0, 150.0, 20.0 ],
					"style" : "",
					"text" : "open/close webcam\n"
				}

			}
, 			{
				"box" : 				{
					"id" : "obj-12",
					"maxclass" : "message",
					"numinlets" : 2,
					"numoutlets" : 1,
					"outlettype" : [ "" ],
					"patching_rect" : [ 311.0, 85.0, 37.0, 22.0 ],
					"style" : "",
					"text" : "open"
				}

			}
, 			{
				"box" : 				{
					"id" : "obj-11",
					"maxclass" : "jit.pwindow",
					"numinlets" : 1,
					"numoutlets" : 2,
					"outlettype" : [ "", "" ],
					"patching_rect" : [ 232.0, 282.0, 320.0, 240.0 ],
					"presentation" : 1,
					"presentation_rect" : [ 56.0, 50.0, 320.0, 240.0 ]
				}

			}
, 			{
				"box" : 				{
					"id" : "obj-8",
					"linecount" : 2,
					"maxclass" : "comment",
					"numinlets" : 1,
					"numoutlets" : 0,
					"patching_rect" : [ 29.0, 202.0, 184.0, 33.0 ],
					"style" : "",
					"text" : "webcam resolution - refresh rate\n\n"
				}

			}
, 			{
				"box" : 				{
					"id" : "obj-7",
					"maxclass" : "newobj",
					"numinlets" : 1,
					"numoutlets" : 2,
					"outlettype" : [ "jit_matrix", "" ],
					"patching_rect" : [ 232.0, 202.0, 107.0, 22.0 ],
					"style" : "",
					"text" : "jit.qt.grab 320 240"
				}

			}
, 			{
				"box" : 				{
					"id" : "obj-3",
					"maxclass" : "comment",
					"numinlets" : 1,
					"numoutlets" : 0,
					"patching_rect" : [ 29.0, 158.0, 150.0, 20.0 ],
					"style" : "",
					"text" : "send a bang every 20ms\n"
				}

			}
, 			{
				"box" : 				{
					"id" : "obj-2",
					"maxclass" : "newobj",
					"numinlets" : 2,
					"numoutlets" : 1,
					"outlettype" : [ "bang" ],
					"patching_rect" : [ 232.0, 158.0, 58.0, 22.0 ],
					"style" : "",
					"text" : "metro 20"
				}

			}
, 			{
				"box" : 				{
					"id" : "obj-1",
					"maxclass" : "toggle",
					"numinlets" : 1,
					"numoutlets" : 1,
					"outlettype" : [ "int" ],
					"parameter_enable" : 1,
					"patching_rect" : [ 232.0, 85.0, 24.0, 24.0 ],
					"saved_attribute_attributes" : 					{
						"valueof" : 						{
							"parameter_longname" : "toggle",
							"parameter_shortname" : "toggle",
							"parameter_type" : 3,
							"parameter_invisible" : 1
						}

					}
,
					"style" : "",
					"varname" : "toggle"
				}

			}
, 			{
				"box" : 				{
					"background" : 1,
					"id" : "obj-27",
					"ignoreclick" : 1,
					"maxclass" : "mira.frame",
					"numinlets" : 0,
					"numoutlets" : 0,
					"patching_rect" : [ 272.076904, 835.398926, 366.560455, 260.601562 ],
					"presentation" : 1,
					"presentation_rect" : [ 484.0, 278.699219, 375.0, 266.601562 ],
					"tabname" : "MIRA-Input",
					"taborder" : 1,
					"varname" : "__basic"
				}

			}
 ],
		"lines" : [ 			{
				"patchline" : 				{
					"destination" : [ "obj-2", 0 ],
					"source" : [ "obj-1", 0 ]
				}

			}
, 			{
				"patchline" : 				{
					"destination" : [ "obj-67", 0 ],
					"midpoints" : [ 635.003357, 1328.699097, 595.003357, 1328.699097 ],
					"source" : [ "obj-10", 0 ]
				}

			}
, 			{
				"patchline" : 				{
					"destination" : [ "obj-366", 0 ],
					"midpoints" : [ 405.899994, 850.248291, 430.252075, 850.248291 ],
					"source" : [ "obj-107", 1 ]
				}

			}
, 			{
				"patchline" : 				{
					"destination" : [ "obj-7", 0 ],
					"midpoints" : [ 320.5, 194.0, 241.5, 194.0 ],
					"source" : [ "obj-12", 0 ]
				}

			}
, 			{
				"patchline" : 				{
					"destination" : [ "obj-7", 0 ],
					"midpoints" : [ 369.5, 193.0, 241.5, 193.0 ],
					"source" : [ "obj-15", 0 ]
				}

			}
, 			{
				"patchline" : 				{
					"destination" : [ "obj-33", 1 ],
					"midpoints" : [ 624.253357, 1562.800537, 620.003357, 1562.800537 ],
					"source" : [ "obj-17", 1 ]
				}

			}
, 			{
				"patchline" : 				{
					"destination" : [ "obj-33", 0 ],
					"source" : [ "obj-17", 0 ]
				}

			}
, 			{
				"patchline" : 				{
					"destination" : [ "obj-19", 0 ],
					"order" : 1,
					"source" : [ "obj-18", 0 ]
				}

			}
, 			{
				"patchline" : 				{
					"destination" : [ "obj-37", 1 ],
					"midpoints" : [ 241.5, 536.0, 365.5, 536.0 ],
					"order" : 0,
					"source" : [ "obj-18", 0 ]
				}

			}
, 			{
				"patchline" : 				{
					"destination" : [ "obj-37", 0 ],
					"midpoints" : [ 241.5, 536.0, 241.5, 536.0 ],
					"order" : 2,
					"source" : [ "obj-18", 0 ]
				}

			}
, 			{
				"patchline" : 				{
					"destination" : [ "obj-26", 0 ],
					"midpoints" : [ 241.5, 195.0, 624.5, 195.0 ],
					"order" : 0,
					"source" : [ "obj-2", 0 ]
				}

			}
, 			{
				"patchline" : 				{
					"destination" : [ "obj-7", 0 ],
					"order" : 1,
					"source" : [ "obj-2", 0 ]
				}

			}
, 			{
				"patchline" : 				{
					"destination" : [ "obj-28", 0 ],
					"source" : [ "obj-21", 0 ]
				}

			}
, 			{
				"patchline" : 				{
					"destination" : [ "obj-74", 0 ],
					"midpoints" : [ 748.5, 1123.650269, 253.576904, 1123.650269 ],
					"source" : [ "obj-22", 0 ]
				}

			}
, 			{
				"patchline" : 				{
					"destination" : [ "obj-25", 0 ],
					"source" : [ "obj-26", 0 ]
				}

			}
, 			{
				"patchline" : 				{
					"destination" : [ "obj-22", 0 ],
					"source" : [ "obj-28", 0 ]
				}

			}
, 			{
				"patchline" : 				{
					"destination" : [ "obj-32", 0 ],
					"midpoints" : [ 925.5, 788.048828, 925.5, 788.048828 ],
					"source" : [ "obj-31", 0 ]
				}

			}
, 			{
				"patchline" : 				{
					"destination" : [ "obj-72", 0 ],
					"midpoints" : [ 925.5, 1124.150269, 366.576904, 1124.150269 ],
					"source" : [ "obj-32", 0 ]
				}

			}
, 			{
				"patchline" : 				{
					"destination" : [ "obj-26", 0 ],
					"midpoints" : [ 883.5, 732.0, 752.0, 732.0, 752.0, 218.0, 624.5, 218.0 ],
					"source" : [ "obj-34", 0 ]
				}

			}
, 			{
				"patchline" : 				{
					"destination" : [ "obj-38", 0 ],
					"midpoints" : [ 906.5, 732.0, 838.5, 732.0, 838.5, 615.0, 868.5, 615.0 ],
					"source" : [ "obj-34", 1 ]
				}

			}
, 			{
				"patchline" : 				{
					"destination" : [ "obj-39", 0 ],
					"midpoints" : [ 929.5, 732.0, 962.0, 732.0, 962.0, 615.0, 976.5, 615.0 ],
					"source" : [ "obj-34", 2 ]
				}

			}
, 			{
				"patchline" : 				{
					"destination" : [ "obj-40", 0 ],
					"midpoints" : [ 952.5, 732.0, 1039.0, 732.0, 1039.0, 615.0, 1069.5, 615.0 ],
					"source" : [ "obj-34", 3 ]
				}

			}
, 			{
				"patchline" : 				{
					"destination" : [ "obj-36", 0 ],
					"midpoints" : [ 1090.5, 803.5, 1090.5, 803.5 ],
					"source" : [ "obj-35", 0 ]
				}

			}
, 			{
				"patchline" : 				{
					"destination" : [ "obj-75", 0 ],
					"midpoints" : [ 1090.5, 1121.900269, 163.576904, 1121.900269 ],
					"source" : [ "obj-36", 0 ]
				}

			}
, 			{
				"patchline" : 				{
					"destination" : [ "obj-70", 0 ],
					"source" : [ "obj-366", 0 ]
				}

			}
, 			{
				"patchline" : 				{
					"destination" : [ "obj-34", 1 ],
					"midpoints" : [ 241.5, 590.0, 799.5, 590.0, 799.5, 680.0, 918.0, 680.0 ],
					"order" : 0,
					"source" : [ "obj-37", 0 ]
				}

			}
, 			{
				"patchline" : 				{
					"destination" : [ "obj-34", 0 ],
					"midpoints" : [ 241.5, 589.0, 215.5, 589.0, 215.5, 683.0, 883.5, 683.0 ],
					"order" : 1,
					"source" : [ "obj-37", 0 ]
				}

			}
, 			{
				"patchline" : 				{
					"destination" : [ "obj-21", 0 ],
					"midpoints" : [ 868.5, 703.5, 748.5, 703.5 ],
					"source" : [ "obj-38", 0 ]
				}

			}
, 			{
				"patchline" : 				{
					"destination" : [ "obj-31", 0 ],
					"midpoints" : [ 976.5, 690.0, 976.5, 690.0, 976.5, 727.5, 925.5, 727.5 ],
					"source" : [ "obj-39", 0 ]
				}

			}
, 			{
				"patchline" : 				{
					"destination" : [ "obj-67", 0 ],
					"midpoints" : [ 861.10498, 1418.449219, 595.003357, 1418.449219 ],
					"source" : [ "obj-4", 0 ]
				}

			}
, 			{
				"patchline" : 				{
					"destination" : [ "obj-35", 0 ],
					"midpoints" : [ 1069.5, 703.5, 1090.5, 703.5 ],
					"source" : [ "obj-40", 0 ]
				}

			}
, 			{
				"patchline" : 				{
					"destination" : [ "obj-54", 0 ],
					"midpoints" : [ 327.182617, 1029.449463, 393.182617, 1029.449463 ],
					"source" : [ "obj-48", 0 ]
				}

			}
, 			{
				"patchline" : 				{
					"destination" : [ "obj-64", 0 ],
					"midpoints" : [ 393.182617, 1192.298828, 709.5, 1192.298828 ],
					"source" : [ "obj-54", 0 ]
				}

			}
, 			{
				"patchline" : 				{
					"destination" : [ "obj-64", 0 ],
					"midpoints" : [ 289.0, 1127.748291, 709.5, 1127.748291 ],
					"source" : [ "obj-59", 0 ]
				}

			}
, 			{
				"patchline" : 				{
					"destination" : [ "obj-67", 0 ],
					"midpoints" : [ 1044.003418, 1169.449219, 595.003357, 1169.449219 ],
					"source" : [ "obj-60", 0 ]
				}

			}
, 			{
				"patchline" : 				{
					"destination" : [ "obj-4", 0 ],
					"source" : [ "obj-62", 0 ]
				}

			}
, 			{
				"patchline" : 				{
					"destination" : [ "obj-62", 0 ],
					"midpoints" : [ 861.10498, 1337.097656, 861.10498, 1337.097656 ],
					"source" : [ "obj-63", 0 ]
				}

			}
, 			{
				"patchline" : 				{
					"destination" : [ "obj-65", 0 ],
					"source" : [ "obj-64", 0 ]
				}

			}
, 			{
				"patchline" : 				{
					"destination" : [ "obj-67", 0 ],
					"midpoints" : [ 709.5, 1382.699097, 595.003357, 1382.699097 ],
					"source" : [ "obj-65", 0 ]
				}

			}
, 			{
				"patchline" : 				{
					"destination" : [ "obj-69", 0 ],
					"source" : [ "obj-67", 0 ]
				}

			}
, 			{
				"patchline" : 				{
					"destination" : [ "obj-78", 0 ],
					"midpoints" : [ 476.252075, 1112.298828, 430.252075, 1112.298828 ],
					"source" : [ "obj-68", 0 ]
				}

			}
, 			{
				"patchline" : 				{
					"destination" : [ "obj-17", 1 ],
					"midpoints" : [ 595.003357, 1496.949097, 712.003357, 1496.949097 ],
					"order" : 0,
					"source" : [ "obj-69", 0 ]
				}

			}
, 			{
				"patchline" : 				{
					"destination" : [ "obj-17", 0 ],
					"order" : 1,
					"source" : [ "obj-69", 0 ]
				}

			}
, 			{
				"patchline" : 				{
					"destination" : [ "obj-11", 0 ],
					"order" : 1,
					"source" : [ "obj-7", 0 ]
				}

			}
, 			{
				"patchline" : 				{
					"destination" : [ "obj-34", 2 ],
					"midpoints" : [ 241.5, 228.0, 392.0, 228.0, 392.0, 135.0, 952.5, 135.0 ],
					"order" : 0,
					"source" : [ "obj-7", 0 ]
				}

			}
, 			{
				"patchline" : 				{
					"destination" : [ "obj-68", 0 ],
					"midpoints" : [ 430.252075, 1047.048828, 476.252075, 1047.048828 ],
					"source" : [ "obj-70", 0 ]
				}

			}
, 			{
				"patchline" : 				{
					"destination" : [ "obj-107", 0 ],
					"source" : [ "obj-71", 0 ]
				}

			}
, 			{
				"patchline" : 				{
					"destination" : [ "obj-69", 3 ],
					"midpoints" : [ 366.576904, 1504.300537, 472.253357, 1504.300537, 472.253357, 1455.097656, 677.003357, 1455.097656 ],
					"source" : [ "obj-72", 0 ]
				}

			}
, 			{
				"patchline" : 				{
					"destination" : [ "obj-74", 0 ],
					"midpoints" : [ 281.576904, 1453.550537, 253.576904, 1453.550537 ],
					"source" : [ "obj-73", 0 ]
				}

			}
, 			{
				"patchline" : 				{
					"destination" : [ "obj-69", 2 ],
					"midpoints" : [ 253.576904, 1512.300537, 434.0867, 1512.300537, 434.0867, 1455.097656, 649.670044, 1455.097656 ],
					"source" : [ "obj-74", 0 ]
				}

			}
, 			{
				"patchline" : 				{
					"destination" : [ "obj-69", 1 ],
					"midpoints" : [ 163.576904, 1495.800537, 453.920013, 1495.800537, 453.920013, 1455.097656, 622.33667, 1455.097656 ],
					"source" : [ "obj-75", 0 ]
				}

			}
, 			{
				"patchline" : 				{
					"destination" : [ "obj-74", 0 ],
					"midpoints" : [ 211.576904, 1453.050537, 253.576904, 1453.050537 ],
					"source" : [ "obj-76", 0 ]
				}

			}
, 			{
				"patchline" : 				{
					"destination" : [ "obj-71", 0 ],
					"hidden" : 1,
					"source" : [ "obj-77", 0 ]
				}

			}
, 			{
				"patchline" : 				{
					"destination" : [ "obj-84", 0 ],
					"midpoints" : [ 430.252075, 1183.097656, 430.252075, 1183.097656 ],
					"source" : [ "obj-78", 0 ]
				}

			}
, 			{
				"patchline" : 				{
					"destination" : [ "obj-63", 0 ],
					"midpoints" : [ 430.252075, 1349.597656, 678.80249, 1349.597656, 678.80249, 1327.097656, 861.10498, 1327.097656 ],
					"source" : [ "obj-83", 0 ]
				}

			}
, 			{
				"patchline" : 				{
					"destination" : [ "obj-85", 0 ],
					"midpoints" : [ 430.252075, 1247.847656, 430.252075, 1247.847656 ],
					"source" : [ "obj-84", 0 ]
				}

			}
, 			{
				"patchline" : 				{
					"destination" : [ "obj-83", 0 ],
					"midpoints" : [ 430.252075, 1278.097656, 430.252075, 1278.097656 ],
					"source" : [ "obj-85", 0 ]
				}

			}
 ],
		"parameters" : 		{
			"obj-39" : [ "number[1]", "number[1]", 0 ],
			"obj-72" : [ "number[5]", "number[5]", 0 ],
			"obj-75" : [ "number[6]", "number[6]", 0 ],
			"obj-19" : [ "swatch", "swatch", 0 ],
			"obj-22" : [ "number[7]", "number[7]", 0 ],
			"obj-48" : [ "slider[4]", "slider", 0 ],
			"obj-40" : [ "number[2]", "number[2]", 0 ],
			"obj-63" : [ "number[9]", "number", 0 ],
			"obj-366" : [ "multislider[2]", "multislider[1]", 0 ],
			"obj-54" : [ "number[8]", "number[8]", 0 ],
			"obj-84" : [ "number[11]", "number[11]", 0 ],
			"obj-64" : [ "number[3]", "number", 0 ],
			"obj-1" : [ "toggle", "toggle", 0 ],
			"obj-17" : [ "volume", "volume", 0 ],
			"obj-38" : [ "number", "number", 0 ],
			"obj-68" : [ "number[4]", "number[4]", 0 ],
			"obj-83" : [ "number[10]", "number[10]", 0 ]
		}
,
		"dependency_cache" : [ 			{
				"name" : "mira.motion.mxo",
				"type" : "iLaX"
			}
 ],
		"autosave" : 0
	}

}
